<?xml version="1.0" encoding="UTF-8"?>
<!DOCTYPE svg PUBLIC "-//W3C//DTD SVG 1.1//EN" "http://www.w3.org/Graphics/SVG/1.1/DTD/svg11.dtd">
<!-- Creator: CorelDRAW -->
<svg xmlns="http://www.w3.org/2000/svg" xml:space="preserve" width="680mm" height="560mm" style="shape-rendering:geometricPrecision; text-rendering:geometricPrecision; image-rendering:optimizeQuality; fill-rule:evenodd; clip-rule:evenodd"
viewBox="0 0 680 560"
 xmlns:xlink="http://www.w3.org/1999/xlink">
 <defs>
  <style type="text/css">
   <![CDATA[
    .fil0 {fill:#D10429}
  .fil1 {fill:#FFFFFF;fill-rule:nonzero} /* This changes the text color to white */
   ]]>
  </style>
 </defs>
 <g id="Layer_x0020_1">
  <metadata id="CorelCorpID_0Corel-Layer"/>
  <g id="_439079664">
   <path id="_439079976" class="fil0" d="M340 79.744c87.2656,0 161.483,55.8243 188.922,133.704l-55.2097 0 16.3242 -14.676c2.2863,-2.0566 2.4761,-5.6109 0.4194,-7.8987l-0.6564 -0.7291c-2.0566,-2.2878 -5.6097,-2.4772 -7.8976,-0.4206l-19.0695 17.1453c-1.8828,1.6915 -2.3434,4.3985 -1.3017,6.5791l-80.2857 0c1.6767,-1.5855 3.1534,-3.5649 4.2848,-5.8672 3.9977,-8.1315 2.178,-17.2107 -4.0631,-20.2774 -6.241,-3.067 -14.5398,1.0394 -18.5359,9.1709 -3.0006,6.106 -2.7222,12.7459 0.2449,16.9737l-90.1988 0 -14.7407 -17.6324c-1.9729,-2.3601 -5.5177,-2.6765 -7.8782,-0.7032l-0.7522 0.629c-2.3605,1.9734 -2.6773,5.5177 -0.7043,7.8778l8.2171 9.8288 -106.04 0c27.4394,-77.88 101.656,-133.704 188.922,-133.704zm188.928 266.808c-27.4341,77.8894 -101.656,133.723 -188.928,133.723 -87.2724,0 -161.494,-55.8334 -188.928,-133.723l56.6537 0 -11.6739 13.9636c-1.9722,2.3594 -1.6566,5.9049 0.7036,7.8782l0.7526 0.629c2.3605,1.9734 5.9059,1.6559 7.8782,-0.7035l16.4477 -19.6742c0.5275,-0.6305 0.8907,-1.3459 1.0957,-2.0931l178.871 0c0.2118,1.2089 0.8184,2.3559 1.806,3.2252l19.2517 16.9407c2.3084,2.0315 5.8607,1.8056 7.893,-0.5039l0.6484 -0.7366c2.0319,-2.3096 1.8041,-5.8619 -0.5043,-7.8935l-12.5368 -11.0319 110.57 0zm-100.415 -156.333l7.9185 -24.391c0.9504,-2.926 -0.6674,-6.0958 -3.5919,-7.0461l-0.9336 -0.3024c-2.926,-0.9503 -6.0973,0.6659 -7.0465,3.5919l-7.9181 24.3895c-0.9504,2.926 0.6659,6.0973 3.5919,7.0461l0.9336 0.3039c2.926,0.9503 6.0958,-0.6674 7.0461,-3.5919zm29.3261 206.694c3.7231,5.8733 0.5381,14.5676 -7.1157,19.4179 -7.6523,4.8518 -16.8737,4.0227 -20.5968,-1.8502 -3.7231,-5.8733 -0.5377,-14.5664 7.1161,-19.4179 7.6523,-4.8503 16.8733,-4.0212 20.5964,1.8502zm-80.3971 -289.92l-3.8105 25.3592c-0.4571,3.0416 1.6581,5.9037 4.6997,6.3608l0.9712 0.146c3.0416,0.4572 5.9037,-1.658 6.3605,-4.6996l3.8109 -25.3578c0.4571,-3.0419 -1.6581,-5.9052 -4.6997,-6.3623l-0.9713 -0.146c-3.0416,-0.4572 -5.9037,1.6581 -6.3608,4.6997zm-25.6167 261.911l25.6434 0c3.075,0 5.593,2.5164 5.593,5.593l0 0.9808c0,3.0766 -2.518,5.593 -5.593,5.593l-25.6434 0c-3.0765,0 -5.593,-2.5164 -5.593,-5.593l0 -0.9808c0,-3.0766 2.5165,-5.593 5.593,-5.593zm-149.37 -188.028l-19.0696 17.1441c-2.2863,2.0566 -2.4761,5.6109 -0.4194,7.8987l0.6564 0.729c2.0566,2.2879 5.6097,2.4773 7.8976,0.4206l19.0695 -17.1452c2.2878,-2.0551 2.4761,-5.6097 0.421,-7.8976l-0.6564 -0.7302c-2.0567,-2.2863 -5.6113,-2.4761 -7.8991,-0.4194zm180.025 231.769l3.8094 25.3592c0.4556,3.042 -1.6581,5.9053 -4.7012,6.3624l-0.9698 0.146c-3.0416,0.4571 -5.9037,-1.6607 -6.3619,-4.6997l-3.8095 -25.3592c-0.4556,-3.0431 1.6581,-5.9049 4.7013,-6.362l0.9697 -0.1464c3.0416,-0.4571 5.9037,1.6581 6.362,4.6997zm-48.3108 -260.699l25.6436 0c3.0751,0 5.593,2.5164 5.593,5.593l0 0.9808c0,3.0765 -2.5179,5.593 -5.593,5.593l-25.6436 0c-3.0763,0 -5.5927,-2.5165 -5.5927,-5.593l0 -0.9808c0,-3.0766 2.5164,-5.593 5.5927,-5.593zm-67.3172 -30.275c22.947,-14.5759 47.2501,-17.4171 54.2879,-6.3399 5.8607,9.2226 -10.9377,11.2792 -29.9726,20.1283l28.4609 34.4551 -31.5177 20.0256 -19.1019 -40.3991c-16.0975,13.4723 -25.093,27.8072 -30.9549,18.582 -7.0392,-11.0746 5.8566,-31.8733 28.7983,-46.452zm14.736 230.338c25.5475,0 46.2584,20.7109 46.2584,46.2584 0,25.5486 -20.7109,46.2595 -46.2584,46.2595 -25.5486,0 -46.2595,-20.7109 -46.2595,-46.2595 0,-25.5475 20.7109,-46.2584 46.2595,-46.2584zm-6.9693 11.4819c8.4262,-1.6908 17.2141,-0.2647 24.7025,4.0585l-17.7332 30.7161 -29.5193 -19.6601c5.2154,-7.8315 13.3271,-13.2659 22.5496,-15.1168l0.0004 0.0023zm-19.6616 58.1974c-5.6774,-6.4518 -8.8366,-14.7753 -8.8366,-23.4221l35.4675 -0.0007 -2.2665 35.3945c-9.3899,-0.6013 -18.1523,-4.9085 -24.3663,-11.9702l0.0019 -0.0015zm60.2311 -12.071c-2.7487,8.1425 -8.3775,15.0399 -15.8659,19.3635l-17.7343 -30.7153 31.7855 -15.7344c4.1749,8.4323 4.8252,18.1747 1.817,27.087l-0.0023 -0.0008zm266.392 -63.0651c-0.416,1.3333 -0.8446,2.6727 -1.2857,4.0166l-0.021 0.0643c-2.7061,8.2391 -5.8721,16.6474 -9.3602,24.9086 -11.1997,26.5267 -25.8091,51.7745 -39.2761,65.2412 -6.6053,6.6042 -13.1054,10.6574 -19.1566,11.2529 -0.0392,1.6079 -0.3233,3.2428 -0.8355,4.8994l-0.0981 0.3095 -0.0008 0.0012 -0.1031 0.3103 -0.0007 0.0011 -0.1084 0.3107 -0.0008 0.0012 -0.1141 0.3111 -0.0007 0.0011 -0.119 0.3118 -0.0008 0.0012 -0.1244 0.3118 -0.0007 0.0012 -0.1293 0.3126 -0.0008 0.0011 -0.1346 0.313 -0.0008 0.0011 -0.1399 0.3134 -0.0008 0.0011 -0.1449 0.3138 -0.0007 0.0011 -0.1502 0.3141 -0.0008 0.0012 -0.1552 0.3149 -0.0007 0.0011 -0.1601 0.3149 -0.0008 0.0011 -0.165 0.3153 -0.0008 0.0011 -0.1704 0.3161 -0.0007 0.0011 -0.1754 0.316 -0.0007 0.0012 -0.1803 0.3164 -0.0007 0.0011 -0.1849 0.3172 -0.0007 0.0011 -0.1902 0.3172 -0.0007 0.0011 -0.1951 0.3176 -0.0008 0.0011 -0.1996 0.318 -0.0008 0.0011 -0.2046 0.3183 -0.0008 0.0011 -0.2095 0.3184 -0.0008 0.0011 -0.2141 0.3191 -0.0007 0.0011 -0.2191 0.3191 -0.0007 0.0011 -0.2236 0.3195 -0.0008 0.0011 -0.2286 0.3194 -0.0007 0.0012 -0.2331 0.3202 -0.0008 0.0011 -0.2377 0.3202 -0.0008 0.0012 -0.2426 0.3202 -0.0007 0.0011 -0.2469 0.321 -0.0007 0.0011 -0.2518 0.321 -0.0007 0.0012 -0.2563 0.3209 -0.0008 0.0012 -0.2609 0.3213 -0.0008 0.0012 -0.265 0.3217 -0.0008 0.0011 -0.27 0.3218 -0.0007 0.0011 -0.2742 0.3221 -0.0008 0.0012 -0.2788 0.3221 -0.0007 0.0011 -0.283 0.3225 -0.0007 0.0011 -0.2875 0.3225 -0.0008 0.0012 -0.2921 0.3228 -0.0007 0.0012 -0.2963 0.3228 -0.0007 0.0012 -0.3005 0.3229 -0.0007 0.0011 -0.305 0.3229 -0.0008 0.0011 -0.3092 0.3233 -0.0007 0.0011 -0.3134 0.3236 -0.0007 0.0012 -0.318 0.3232 -0.0007 0.0012 -0.3218 0.3236 -0.0007 0.0011c-0.2099,0.21 -0.4233,0.4199 -0.6393,0.6306l-0.0008 0.0011c-0.216,0.2103 -0.435,0.4206 -0.6563,0.6317l-0.0008 0.0011c-0.2217,0.2107 -0.4461,0.4218 -0.6731,0.6328l-0.0008 0.0012c-0.227,0.211 -0.4575,0.4221 -0.6902,0.6335l-0.0008 0.0012c-0.2327,0.2114 -0.4681,0.4225 -0.7066,0.6343l-0.0007 0.0012c-0.2381,0.2118 -0.4796,0.4232 -0.723,0.6351l-0.0007 0.0011c-0.2434,0.2118 -0.4902,0.4236 -0.7389,0.6355 -1.4954,1.2743 -3.0854,2.551 -4.7613,3.828l-0.0008 0.0008c-0.5583,0.4252 -1.1264,0.8507 -1.7033,1.2755l-0.0008 0.0008c-0.8659,0.6377 -1.7528,1.2747 -2.659,1.9113l-0.0008 0.0008c-0.6039,0.4244 -1.2169,0.8477 -1.838,1.2713l-0.0007 0.0008c-0.6214,0.4232 -1.2508,0.8461 -1.8886,1.2683l-0.0007 0.0007c-0.6378,0.4221 -1.2835,0.8439 -1.9372,1.2645l-0.0008 0.0008c-0.3267,0.2103 -0.6553,0.4202 -0.9857,0.6301l-0.0008 0.0008c-0.3305,0.2099 -0.6629,0.4194 -0.9971,0.629l-0.0008 0.0007c-2.3415,1.4676 -4.7735,2.9241 -7.2826,4.3643l-0.0008 0.0008c-1.0755,0.6172 -2.165,1.231 -3.2675,1.8417l-0.0008 0.0008 -1.1062 0.6088 -0.0008 0.0008c-0.37,0.2027 -0.7423,0.4046 -1.115,0.6066l-0.0008 0.0007c-1.1196,0.6059 -2.251,1.2079 -3.3941,1.8057l-0.0008 0.0007c-0.3807,0.1993 -0.7629,0.3975 -1.1462,0.596l-0.0008 0.0007c-1.1503,0.5952 -2.3114,1.1858 -3.4827,1.7718l-0.0008 0.0008 -1.1739 0.5837 -0.0008 0.0008c-1.1778,0.583 -2.3643,1.1603 -3.5596,1.733l-0.0007 0.0008c-0.7967,0.3818 -1.5973,0.7606 -2.4008,1.1374l-0.0008 0.0008 -1.2078 0.5628 -0.0008 0.0008c-4.8449,2.246 -9.804,4.3996 -14.8071,6.4346 -0.5305,0.2156 -1.0622,0.4293 -1.5938,0.6423l-0.5321 0.2126c-0.7005,0.2791 -1.4018,0.556 -2.1038,0.8306l-0.0281 0.011 -0.534 0.208 -0.5339 0.2073 -0.5339 0.2061 -1.0485 0.402 -0.0395 0.0148c-1.2409,0.4727 -2.4834,0.9378 -3.7258,1.3945l-0.5351 0.1966 -0.5354 0.1951 -0.5351 0.1944 -0.0312 0.0114 -0.5043 0.1814 -0.535 0.1924 -0.1411 0.0502c-0.6667,0.2385 -1.3326,0.4742 -1.9989,0.7074l-0.5347 0.1867 -0.5343 0.1856 -0.5343 0.1844c-0.7123,0.2453 -1.4242,0.4875 -2.1353,0.7271l-0.5332 0.1788 -0.9511 0.3164 -0.2274 0.0753 -0.8778 0.2882 -0.0734 0.024 -0.5316 0.173 -0.5313 0.1719 -0.5309 0.1708c-0.7073,0.2266 -1.4135,0.4499 -2.1186,0.6704l-0.5286 0.1647 -0.5282 0.1635 -0.5275 0.162c-17.5225,5.3679 -34.1376,8.662 -46.7596,8.662 -9.3537,0 -16.8193,-1.736 -21.5163,-5.604 -4.6663,4.4392 -12.419,6.4095 -22.2325,6.3996 -19.0596,-0.0194 -47.0874,-7.8945 -73.5947,-19.0874 -26.5252,-11.2001 -51.7704,-25.808 -65.237,-39.275 -6.6046,-6.6042 -10.6578,-13.1042 -11.2529,-19.1559 -6.4316,-0.1559 -13.2982,-4.2289 -20.226,-11.1567 -13.4655,-13.4655 -27.7319,-38.8704 -38.5795,-65.5603 -3.9452,-9.707 -7.4503,-19.6137 -10.314,-29.2123l10.8997 0c2.5883,8.3174 5.6668,16.8702 9.0898,25.2942 10.3722,25.5193 23.8156,49.6148 36.2916,62.0908 7.148,7.148 13.5503,9.9991 17.8408,5.7086l7.3876 7.3876c-3.871,3.871 -0.8751,10.0908 6.2505,17.2164 12.5581,12.5585 36.5323,26.3624 61.8904,37.0704 25.3729,10.7152 51.9084,18.2534 69.5537,18.2713 9.8942,0.0084 16.393,-2.3742 16.7231,-8.122l-0.0068 -0.4597 0.0209 0 10.4083 0 0.0209 0c0,5.4675 6.5099,7.7443 16.5824,7.7443 10.7673,0 24.8454,-2.6537 39.9584,-7.0594l0 -0.0004 0.4594 -0.1343 0.4601 -0.1353 0.0133 -0.0038c1.0634,-0.3142 2.1312,-0.637 3.2037,-0.9679l0.0201 -0.0061 0.4643 -0.1437 0.4651 -0.1449 0.4655 -0.1461 0.4663 -0.1468 0.4662 -0.1479 0.467 -0.1491 0.7366 -0.2365 0.1986 -0.0639 0.4681 -0.1521 0.4681 -0.1529 0.469 -0.1536c0.6252,-0.2058 1.2519,-0.4142 1.879,-0.6249l0.4704 -0.1585 0.942 -0.3202 0.4712 -0.1613 0.4716 -0.1624 0.4719 -0.1631 0.8808 -0.3069 0.0631 -0.0221 0.4727 -0.1662 0.4723 -0.1669 0.4727 -0.1677 0.9458 -0.3381 0.4731 -0.1704 0.4731 -0.1711 0.4735 -0.1719 0.0407 -0.0148 0.9058 -0.332 0.4735 -0.1746 0.4735 -0.1753 0.4734 -0.1765 0.947 -0.3552 0.4734 -0.1787c1.4208,-0.5377 2.8401,-1.0857 4.2574,-1.6444l0.4724 -0.1863 0.8811 -0.3503 0.0631 -0.0251 0.4716 -0.189 0.4716 -0.1894 0.4712 -0.1905 0.4711 -0.1909c7.177,-2.9173 14.2413,-6.0764 20.9665,-9.3895l0.0007 -0.0008c2.615,-1.2884 5.1785,-2.5993 7.6782,-3.9288l0.0008 -0.0008 1.0663 -0.57 0.0008 -0.0008c1.417,-0.7625 2.8123,-1.5299 4.184,-2.3027l0.0007 -0.0007c2.0571,-1.1592 4.0593,-2.3278 5.9992,-3.5045l0.0008 -0.0007c0.9693,-0.5883 1.9231,-1.1774 2.8605,-1.7688l0.0008 -0.0007c2.1867,-1.3794 4.2825,-2.7667 6.2737,-4.1555l0.0008 -0.0008c0.853,-0.5948 1.6866,-1.1907 2.5008,-1.7859l0.0008 -0.0007c1.6273,-1.1911 3.1739,-2.3822 4.6308,-3.5695l0.0008 -0.0007c0.4856,-0.3959 0.961,-0.7914 1.4269,-1.1866 0.2323,-0.197 0.4624,-0.3943 0.6898,-0.5909l0.0008 -0.0012c0.2274,-0.197 0.4518,-0.3936 0.6739,-0.5902l0.0007 -0.0008c0.2221,-0.1966 0.4415,-0.3932 0.6583,-0.5894l0.0008 -0.0008c0.2167,-0.1962 0.4308,-0.3924 0.6423,-0.5883l0.0007 -0.0011c0.2111,-0.1959 0.4203,-0.3914 0.626,-0.5868l0.0008 -0.0012c0.2061,-0.1958 0.4092,-0.3905 0.6092,-0.5856l0.0008 -0.0012c0.2004,-0.1954 0.3981,-0.3901 0.5925,-0.5845l0.0007 -0.0011 0.3313 -0.3335 0.0007 -0.0012 0.3248 -0.332 0.0008 -0.0011 0.3183 -0.3313 0.0007 -0.0011 0.3119 -0.3297 0.0007 -0.0012 0.3054 -0.3289 0.0008 -0.0012 0.2985 -0.3274 0.0008 -0.0011 0.292 -0.3259 0.0008 -0.0012 0.2852 -0.3251 0.0008 -0.0012 0.2783 -0.3232 0.0008 -0.0012 0.2715 -0.3221 0.0008 -0.0011 0.2647 -0.321 0.0007 -0.0011 0.2575 -0.3191 0.0008 -0.0011 0.2506 -0.318 0.0007 -0.0011 0.2434 -0.3164 0.0008 -0.0011 0.2362 -0.3149 0.0007 -0.0012 0.229 -0.313 0.0007 -0.0011c0.0749,-0.1042 0.1495,-0.208 0.2217,-0.3118l0.0008 -0.0012 0.2141 -0.3099 0.0008 -0.0012c0.0699,-0.103 0.1391,-0.2057 0.2065,-0.3084l0.0007 -0.0011 0.1993 -0.3065 0.0007 -0.0012 0.1917 -0.305 0.0008 -0.0011c0.0623,-0.1016 0.124,-0.2023 0.1837,-0.3031l0.0007 -0.0012 0.1765 -0.3015 0.0007 -0.0012 0.1685 -0.2996 0.0008 -0.0012 0.1605 -0.2978 0.0007 -0.0011 0.1525 -0.2959 0.0008 -0.0011 0.1445 -0.294 0.0007 -0.0011c0.0468,-0.0978 0.0928,-0.1951 0.137,-0.2921l0.0007 -0.0011c0.0441,-0.097 0.0867,-0.194 0.1282,-0.2902l0.0007 -0.0011c0.0415,-0.0962 0.0818,-0.1921 0.1206,-0.2879l0.0007 -0.0012c0.0388,-0.0958 0.0757,-0.1909 0.1119,-0.2859l0.0007 -0.0012c0.0361,-0.0951 0.0707,-0.1897 0.1038,-0.2841l0.0008 -0.0011 0.0955 -0.2822c0.9492,-2.9157 0.5457,-5.4888 -1.5311,-7.5656l0.0007 -0.0007 0 -0.0004 7.3865 -7.3865 0.0004 0 0.0008 -0.0008c3.8706,3.8707 10.0903,0.8747 17.2163,-6.2509 12.5581,-12.5581 26.3624,-36.5323 37.0704,-61.8904 1.1721,-2.775 2.3058,-5.5641 3.3961,-8.3539l0.0228 -0.0578 0.4362 -1.1234 0.0137 -0.035 0.4419 -1.1508 0.0091 -0.0243 0.0023 -0.0061 0.0076 -0.0198 0.348 -0.9161 0.0958 -0.2533 0.0806 -0.2145 0.3503 -0.9348 0.0167 -0.0452 0.4111 -1.1093 0.0312 -0.0845 0.0597 -0.1627 0.3415 -0.9336 0.035 -0.0963 0.1342 -0.3704 0.1685 -0.4662 0.046 -0.1278 0.1213 -0.3385 0.1666 -0.4658 0.1658 -0.4655 0.1647 -0.4655 0.1635 -0.4651c0.2175,-0.6199 0.4328,-1.239 0.6454,-1.857l0.1589 -0.4635 0.3149 -0.9261 0.1563 -0.462c0.2073,-0.6161 0.4119,-1.2318 0.6138,-1.8456l0.151 -0.4602 0.0817 -0.2509 10.9084 0zm-483.155 -133.104c2.9693,-9.5154 6.592,-19.3323 10.6517,-28.9515 11.194,-26.5222 25.8129,-51.7826 39.3039,-65.2735 6.6061,-6.6062 13.1053,-10.6559 19.1558,-11.2492 0.1598,-6.4289 4.232,-13.2921 11.1564,-20.2165 13.4651,-13.4655 38.8703,-27.7323 65.5602,-38.5794 26.669,-10.8388 54.8679,-18.3634 73.9473,-18.3634 9.3431,0 16.8022,1.7327 21.5004,5.5915 4.6586,-4.4327 12.3911,-6.4057 22.183,-6.4061 19.0429,0 47.0953,7.8763 73.638,19.0787 11.2644,4.7541 22.2987,10.1246 32.3027,15.7663l-0.0103 0.0103c13.5572,7.6412 25.2147,15.7723 32.9674,23.525 6.6046,6.6046 10.6578,13.1046 11.253,19.1563 6.4315,0.1559 13.2981,4.2289 20.226,11.1567 13.4655,13.4651 27.7323,38.8704 38.5794,65.5603 1.5824,3.8934 3.093,7.8204 4.5213,11.7458l0.1944 0.535c2.0536,5.6756 3.9307,11.3469 5.5922,16.9137l-10.9004 0 -0.0901 -0.2898 -0.146 -0.4655c-0.2389,-0.7598 -0.4815,-1.5219 -0.7283,-2.2852l-0.0339 -0.1049c-0.3476,-1.0736 -0.7027,-2.1498 -1.0655,-3.2287l-0.1586 -0.4705c-2.0681,-6.1185 -4.3742,-12.309 -6.8613,-18.4306 -10.3722,-25.5194 -23.8152,-49.6149 -36.2916,-62.0912 -5.9189,-5.9186 -11.3263,-8.8917 -15.4472,-7.3032l-0.0011 0.0007c-0.1552,0.0598 -0.3085,0.1263 -0.4598,0.1989l-0.0012 0.0008c-0.0753,0.0361 -0.1506,0.0742 -0.2251,0.1137l-0.0011 0.0008c-0.075,0.0399 -0.1499,0.0817 -0.2237,0.1247 -0.0737,0.043 -0.1467,0.0871 -0.2194,0.1335l-0.0007 0.0008c-0.0727,0.0463 -0.1449,0.0943 -0.2168,0.1437l-0.0012 0.0008c-0.0718,0.0498 -0.1426,0.1007 -0.2137,0.154l-0.0007 0.0007c-0.0708,0.0529 -0.1411,0.1077 -0.2107,0.164l-0.0012 0.0011c-0.0696,0.0563 -0.1392,0.1145 -0.2076,0.1742l-0.0011 0.0007c-0.0689,0.0601 -0.137,0.1213 -0.2046,0.1849l-0.0012 0.0007c-0.0677,0.0631 -0.135,0.1286 -0.2015,0.1951l-0.0012 0.0008 -7.3872 -7.3877 0.0007 -0.0007c0.0601,-0.0601 0.1187,-0.1209 0.1757,-0.1826l0.0008 -0.0007c0.057,-0.0612 0.1122,-0.1232 0.1658,-0.1856l0.0008 -0.0008c0.0536,-0.0623 0.1049,-0.1258 0.1555,-0.1893l0.0008 -0.0008c0.0502,-0.0635 0.0988,-0.1278 0.146,-0.1924l0.0008 -0.0008c0.0471,-0.0646 0.092,-0.1301 0.1357,-0.1958l0.0008 -0.0008c0.0437,-0.0658 0.0859,-0.132 0.1262,-0.1989l0.0008 -0.0011c0.0403,-0.067 0.0795,-0.1343 0.1168,-0.202l0.0007 -0.0011c0.0373,-0.0677 0.0727,-0.1365 0.1069,-0.2054l0.0007 -0.0007c0.0343,-0.0689 0.0666,-0.1385 0.0978,-0.2088 0.0623,-0.1407 0.1179,-0.2833 0.1677,-0.4282l0.0007 -0.0012c1.3159,-3.8391 -1.752,-9.1179 -7.6526,-15.0186 -7.6196,-7.6196 -19.4434,-15.6978 -33.2279,-23.2653l-0.0054 0.0053c-8.9449,-4.9077 -18.7185,-9.6013 -28.7092,-13.818 -25.379,-10.7111 -51.9229,-18.2432 -69.567,-18.2432 -10.0847,0 -16.6197,2.4997 -16.6513,8.5357l0.0004 0.0259 -0.0008 0 -0.0003 0.0171 -10.4475 -0.0004 -0.0004 -0.0167 -0.0011 0c0,-0.1708 -0.0065,-0.3385 -0.019,-0.5028l0 -0.0003c-0.0061,-0.0772 -0.0137,-0.1533 -0.0221,-0.229 -0.5758,-4.9335 -6.9461,-7.0046 -16.5512,-7.005 -5.8242,0 -12.6121,0.7735 -20.0039,2.1783l-0.0114 0.0023c-0.3488,0.0665 -0.6986,0.1342 -1.0496,0.2035l-0.0111 0.0019c-14.9106,2.9393 -32.1844,8.3843 -48.9432,15.195 -25.5193,10.3722 -49.6148,23.8153 -62.0908,36.2916 -7.1351,7.1351 -9.9885,13.5268 -5.7314,17.8169l0.0121 0.0118 -0.0004 0.0003 0.0111 0.0114 -7.3876 7.3877 -0.0114 -0.0107 -0.0008 0.0008c-0.178,-0.178 -0.3605,-0.3408 -0.5476,-0.4895l-0.0114 -0.0091c-0.0601,-0.0471 -0.1206,-0.0932 -0.1818,-0.1377 -3.8988,-2.8339 -9.7831,0.2168 -16.4638,6.8971 -3.5295,3.5295 -7.1575,7.9607 -10.7874,13.0711l-0.0076 0.0107c-0.1993,0.2806 -0.3982,0.5639 -0.5978,0.8484 -9.0807,12.9825 -18.1466,30.1525 -25.6856,48.0131 -3.4968,8.2862 -6.6548,16.6964 -9.3225,24.8808l-10.9415 0z"/>
   <path id="_439079712" class="fil1" d="M622.153 291.874c0.0681,-0.1135 0.1361,-0.2043 0.2041,-0.2948l0.136 -0.2267c0.9748,-1.3149 1.7684,-2.3353 2.426,-3.0609 0.6348,-0.7028 1.1789,-1.2017 1.5645,-1.4737 0.408,-0.2492 0.7252,-0.3856 0.9293,-0.3628 0.0227,0 0.0455,0 0.068,0l0.0455 0c0.068,0 0.136,0.0228 0.1588,0.0452 0.0224,0.0228 0.0452,0.0228 0.0452,0.0456 0.0228,0.0452 0.0453,0.1132 0.0228,0.2268 0,0.0904 -0.0456,0.204 -0.0908,0.34 -0.7708,1.3149 -1.5872,2.4033 -2.426,3.2649 -0.8616,0.8616 -1.7005,1.5417 -2.5621,2.0405 -0.204,0.0908 -0.3628,0.068 -0.4988,-0.068 -0.1132,-0.136 -0.136,-0.2948 -0.0225,-0.4761l0 0zm-83.0382 -5.3509c-0.9752,2.1541 -2.0633,4.3305 -3.2424,6.4846 -1.2017,2.1765 -2.4485,4.1717 -3.741,5.9854 -1.2924,1.8137 -2.562,3.2649 -3.8089,4.3757 -1.2469,1.0884 -2.4033,1.6553 -3.4917,1.7005 -0.1132,0 -0.204,-0.0228 -0.2492,-0.0452 -0.068,-0.0456 -0.1136,-0.1588 -0.1816,-0.3401 -0.272,-0.8164 -0.2492,-1.9728 0.068,-3.4689 0.2948,-1.4964 0.8392,-3.1289 1.6325,-4.8973 0.7936,-1.7685 1.7684,-3.4917 2.9476,-5.1694 1.1789,-1.6776 2.4941,-3.1061 3.9902,-4.3077 0.8616,-0.6804 1.7232,-1.2016 2.5393,-1.542 0.8391,-0.34 1.6552,-0.5213 2.426,-0.5213 0.0228,0 0.0228,0 0.0228,0 0.4532,0.0228 0.7936,0.2041 1.0201,0.5669 0.2043,0.3628 0.2268,0.748 0.0683,1.1788l0 0zm20.4027 13.9979c-0.6821,1.0908 -1.4214,2.15 -2.2194,3.1654 -0.9976,1.2697 -2.0632,2.3577 -3.1968,3.2421 -0.2041,0.1588 -0.4081,0.2948 -0.6349,0.408 -0.2268,0.0908 -0.4308,0.0681 -0.5668,-0.068 -0.136,-0.136 -0.1815,-0.476 -0.1135,-1.0428 0.1135,-0.9068 0.3855,-2.1085 0.8163,-3.6049 0.4309,-1.4965 0.9521,-3.1741 1.6097,-5.0561 0.6576,-1.9497 1.3832,-3.945 2.154,-5.963 0.7709,-2.0177 1.5417,-3.9902 2.3125,-5.8946 0.7481,-1.9045 1.4737,-3.6505 2.1313,-5.2602 0.3628,-0.884 0.7028,-1.7004 0.9976,-2.4485 0.2948,-0.7484 0.5668,-1.406 0.7936,-1.9952l0.3173 -0.7936c0.136,-0.3176 0.204,-0.6348 0.2268,-0.9524 0.0227,-0.3173 -0.0228,-0.6348 -0.1136,-0.9521 -0.204,-0.6348 -0.544,-1.1108 -1.0428,-1.4736 -0.4989,-0.3628 -1.0429,-0.5444 -1.6777,-0.5669l-6.8698 0c-1.8593,0.0225 -3.6049,0.3628 -5.2602,1.0429 -1.6548,0.68 -3.1285,1.6552 -4.4437,2.9473 -2.6301,-1.7005 -5.3054,-2.7661 -7.9807,-3.2421 -2.6752,-0.4533 -5.3733,-0.2948 -8.0486,0.476 -2.2673,0.6804 -4.3533,1.6552 -6.2805,2.9477 -1.927,1.2924 -3.673,2.766 -5.2374,4.3985 -1.5869,1.6097 -2.9701,3.2649 -4.1717,4.9425 -1.2017,1.6777 -2.2217,3.2194 -3.0609,4.6478 -0.8161,1.4057 -1.4509,2.5621 -1.8589,3.4461 -0.4308,0.8844 -0.6576,1.3605 -0.6576,1.406 -0.1588,0.3625 -0.4536,1.1561 -0.8841,2.4033 -0.3675,1.1219 -0.753,2.483 -1.1406,4.0823 -0.929,1.5189 -1.9718,2.9011 -3.1051,4.1704 -1.1337,1.2924 -2.3577,2.2672 -3.6502,2.9701 -1.1336,0.5668 -1.9272,0.8616 -2.3808,0.8616 -0.476,0 -0.7253,-0.1588 -0.7933,-0.4536 -0.068,-0.2948 -0.0455,-0.5893 0.0453,-0.9068l0.0227 -0.1361c0.1813,-0.816 0.3853,-1.6324 0.5668,-2.4712 0.2493,-1.1109 0.4989,-2.2221 0.7709,-3.3557 0.272,-1.1336 0.5668,-2.2445 0.884,-3.3781 0.9072,-3.1969 1.9725,-6.575 3.1969,-10.1347 1.2244,-3.5822 2.6301,-7.4591 4.2625,-11.6308 0.6121,-1.5872 1.2245,-3.1289 1.8365,-4.6026 0.612,-1.4739 1.2244,-2.902 1.8137,-4.2625 1.882,-4.2173 3.8317,-8.0034 5.8497,-11.4043 2.0177,-3.3781 4.1942,-6.4842 6.4842,-9.2959 0.7256,-0.9068 1.1109,-1.7456 1.2017,-2.5165 0.0907,-0.7936 0.0452,-1.4284 -0.1588,-1.9724 -0.3173,-0.9069 -0.8389,-1.678 -1.5869,-2.3581 -0.7484,-0.6576 -1.5872,-1.2244 -2.4713,-1.6777 -0.8844,-0.476 -1.7004,-0.8163 -2.4488,-1.0884 -0.7481,-0.2492 -1.2921,-0.4308 -1.5869,-0.4988 -0.068,-0.0224 -0.408,-0.0904 -1.0432,-0.1812 -0.6573,-0.0908 -1.4961,-0.1136 -2.5617,-0.068 -1.0657,0.0452 -2.2673,0.2492 -3.5825,0.6348 -1.2016,0.3628 -2.5165,0.9748 -3.9221,1.8592 -1.4057,0.8613 -2.8117,2.131 -4.2398,3.7862 -1.4284,1.6324 -2.7436,3.7865 -3.9677,6.4162l-0.4084 0.9072c-1.088,2.3577 -2.1084,4.6705 -3.0605,6.915 -0.9752,2.2445 -1.7912,4.421 -2.5168,6.5522 -0.0905,0.2268 -0.3853,0.9977 -0.8616,2.3353 -0.4989,1.3377 -1.1337,3.1061 -1.9045,5.3509 -0.7708,2.2217 -1.6097,4.8066 -2.5393,7.7311 -0.9068,2.9249 -1.8592,6.099 -2.8113,9.5227 -0.1816,0.7028 -0.408,1.4508 -0.6348,2.2672 -0.3488,1.1953 -0.7109,2.473 -1.0757,3.8247 -0.1799,0.3923 -0.3755,0.81 -0.5852,1.2539 -0.5893,1.2469 -1.3149,2.5621 -2.1085,3.9677 -0.8161,1.3832 -1.7229,2.7209 -2.7205,3.9905 -0.9977,1.2697 -2.0633,2.3577 -3.1969,3.2421 -0.204,0.1588 -0.408,0.2948 -0.6348,0.408 -0.2268,0.0908 -0.4308,0.0681 -0.5669,-0.068 -0.136,-0.136 -0.1815,-0.476 -0.1135,-1.0428 0.1135,-0.9068 0.3856,-2.1085 0.8164,-3.6049 0.4308,-1.4965 0.952,-3.1741 1.6096,-5.0561 0.6576,-1.9497 1.3832,-3.945 2.1541,-5.963 0.7708,-2.0177 1.5416,-3.9902 2.3125,-5.8946 0.748,-1.9045 1.4736,-3.6505 2.1312,-5.2602 0.3628,-0.884 0.7028,-1.7004 0.9976,-2.4485 0.2948,-0.7484 0.5669,-1.406 0.7937,-1.9952l0.3172 -0.7936c0.136,-0.3176 0.204,-0.6348 0.2268,-0.9524 0.0228,-0.3173 -0.0228,-0.6348 -0.1136,-0.9521 -0.204,-0.6348 -0.544,-1.1108 -1.0428,-1.4736 -0.4988,-0.3628 -1.0429,-0.5444 -1.6777,-0.5669l-6.8698 0c-1.8592,0.0225 -3.6049,0.3628 -5.2601,1.0429 -1.6549,0.68 -3.1286,1.6552 -4.4438,2.9473 -2.63,-1.7005 -5.3053,-2.7661 -7.9806,-3.2421 -2.6753,-0.4533 -5.3734,-0.2948 -8.0487,0.476 -2.2672,0.6804 -4.3533,1.6552 -6.2805,2.9477 -1.9269,1.2924 -3.6729,2.766 -5.2374,4.3985 -1.5869,1.6097 -2.9701,3.2649 -4.1717,4.9425 -1.2016,1.6777 -2.2217,3.2194 -3.0609,4.6478 -0.816,1.4057 -1.4509,2.5621 -1.8589,3.4461 -0.4308,0.8844 -0.6576,1.3605 -0.6576,1.406 -0.1588,0.3625 -0.4536,1.1561 -0.884,2.4033 -0.4084,1.2469 -0.8392,2.7885 -1.27,4.625 -0.4305,1.814 -0.7481,3.7865 -0.9293,5.8722 -0.1816,2.1088 -0.1136,4.1717 0.2265,6.2125 0.3403,2.0629 1.0431,3.9221 2.154,5.6226 1.1788,1.7457 2.7208,3.0381 4.6477,3.9225 1.9273,0.8841 4.2173,1.3149 6.8698,1.3149 2.8797,0 5.7362,-0.8389 8.5251,-2.4941 2.7885,-1.6549 5.5321,-4.149 8.2074,-7.4366 0.1132,1.61 0.3628,3.0156 0.7481,4.2173 0.408,1.2244 0.9524,2.2217 1.6324,3.0381 0.6348,0.7708 1.3832,1.3828 2.2673,1.8136 0.8616,0.4536 1.8592,0.7256 2.9476,0.8164l0.1133 0c0.34,0.0453 0.7028,0.0453 1.0656,0.0453 3.1741,-0.0228 6.3482,-0.8389 9.4771,-2.4261 2.562,-1.2901 5.0042,-3.0304 7.3388,-5.1951 0.4057,1.4264 1.02,2.7007 1.8492,3.835 0.6576,0.8388 1.6096,1.5417 2.8568,2.0857 1.2469,0.5668 2.6073,0.9976 4.0582,1.2697 1.474,0.2947 2.8341,0.4308 4.1265,0.4308 3.1969,-0.0228 6.371,-0.8389 9.4999,-2.4261 2.2481,-1.1403 4.4263,-2.6317 6.517,-4.4578 0.2693,0.5651 0.5772,1.1139 0.9253,1.6465 1.1788,1.7457 2.7208,3.0381 4.6477,3.9225 1.9273,0.8841 4.2173,1.3149 6.8698,1.3149 2.8797,0 5.7362,-0.8389 8.525,-2.4941 2.7886,-1.6549 5.5322,-4.149 8.2075,-7.4366 0.1132,1.61 0.3628,3.0156 0.748,4.2173 0.4081,1.2244 0.9524,2.2217 1.6325,3.0381 0.6348,0.7708 1.3832,1.3828 2.2673,1.8136 0.8616,0.4536 1.8592,0.7256 2.9476,0.8164l0.1132 0c0.3401,0.0453 0.7029,0.0453 1.0657,0.0453 3.1741,-0.0228 6.3482,-0.8389 9.477,-2.4261 2.5078,-1.2629 4.9011,-2.9567 7.1908,-5.0585 0.081,0.1605 0.1651,0.32 0.2516,0.4787 1.1108,1.9045 2.6072,3.4689 4.5117,4.6254 1.8817,1.1788 4.1717,1.9724 6.8246,2.3577 0.3624,0.0455 0.884,0.0908 1.5641,0.1363 0.7031,0.0225 1.3832,0.0452 2.086,0.068 0.7028,0 1.2244,0.0225 1.5872,0.0225 3.6274,-0.0225 7.3003,-0.8841 11.0188,-2.5393 3.7409,-1.6549 7.323,-3.9677 10.7467,-6.9378l0.062 -0.0543c0.2911,0.7859 0.6435,1.5517 1.0549,2.2988 1.1561,1.9728 2.6073,3.5144 4.3757,4.6253 1.7685,1.1108 3.7182,1.8817 5.8722,2.2672 2.1313,0.4081 4.3305,0.5216 6.575,0.3629 2.2673,-0.1588 4.4438,-0.5441 6.575,-1.1337 2.1313,-0.5896 4.0585,-1.3376 5.8042,-2.1992 3.6957,-1.8817 7.0966,-4.217 10.1799,-7.0511 3.0837,-2.8116 5.8042,-5.9629 8.1622,-9.4318 2.3581,-3.4917 4.285,-7.1419 5.759,-10.9736 0.2264,-0.612 0.4532,-1.2244 0.6572,-1.8364l0.068 -0.204 0.0228 -0.2268c0.0453,-0.2041 0.0228,-0.6349 -0.068,-1.3149 -0.0908,-0.6576 -0.4308,-1.3604 -1.0428,-2.086l0 0c-0.2948,-0.3856 -0.7709,-0.7256 -1.4057,-1.0429 -0.6348,-0.3176 -1.474,-0.4764 -2.494,-0.4988 -1.4512,0.0224 -2.5849,0.2948 -3.4009,0.7708 -0.8164,0.4988 -1.4057,1.0657 -1.8137,1.7005 -0.3856,0.6348 -0.6576,1.2016 -0.8164,1.6776 -0.0452,0.1136 -0.0908,0.2041 -0.1132,0.3176 -0.5896,1.4057 -1.4285,3.0153 -2.4941,4.8746 -1.0656,1.8364 -2.3125,3.7181 -3.7409,5.6226 -1.4512,1.9272 -3.0157,3.6729 -4.6933,5.2829 -1.7005,1.6097 -3.4689,2.8565 -5.3054,3.7862 -1.8364,0.9068 -3.6957,1.2924 -5.5774,1.1564 -1.4512,-0.1588 -2.494,-0.5896 -3.1288,-1.3152 -0.6349,-0.7253 -0.9977,-1.6321 -1.0657,-2.7433 -0.068,-1.1109 0,-2.3353 0.2496,-3.673 0.0452,-0.272 0.1812,-0.4532 0.3852,-0.5895 0.2041,-0.1361 0.4309,-0.1813 0.7029,-0.1133 1.4964,0.3628 3.1516,0.4536 4.9653,0.2496 1.8137,-0.2268 3.6501,-0.8392 5.5549,-1.8365 1.9045,-1.0204 3.741,-2.5396 5.4866,-4.5345 1.6777,-1.95 2.9473,-3.7413 3.8545,-5.3737 0.8841,-1.6097 1.5189,-3.0605 1.8589,-4.3302 0.3404,-1.2696 0.5216,-2.3808 0.4988,-3.2649 0.1816,-1.6324 0,-3.1516 -0.5212,-4.6025 -0.5216,-1.4512 -1.3604,-2.7433 -2.4941,-3.8769 -1.1336,-1.1337 -2.5393,-2.0408 -4.1945,-2.7209 -2.4713,-0.9748 -5.0786,-1.3376 -7.8219,-1.0656 -2.7436,0.272 -5.4189,1.1564 -8.0714,2.63 -2.5848,1.5189 -4.9425,3.3557 -7.0738,5.5546 -2.1088,2.1769 -3.9453,4.4666 -5.5097,6.8699 -1.5641,2.4032 -2.8113,4.6933 -3.7634,6.8925 -0.068,0.136 -0.136,0.2948 -0.1815,0.4536 -0.3803,0.8727 -0.805,2.1433 -1.3176,3.8113 -0.6914,1.0321 -1.4405,2.0756 -2.2478,3.1265 -1.4285,1.8817 -2.9701,3.6049 -4.6478,5.2146 -1.7004,1.6097 -3.4461,2.9249 -5.3053,3.9449 -1.8365,1.0204 -3.6957,1.5873 -5.5774,1.6777 -0.7029,0.0228 -1.3832,-0.0904 -2.0408,-0.3172 -0.6573,-0.2496 -1.1337,-0.5441 -1.3601,-0.8844 -0.6124,-0.9293 -0.9072,-2.3805 -0.8844,-4.3758 0,-1.9952 0.4988,-4.3757 1.4512,-7.119 0.5893,-1.6552 1.2016,-3.1061 1.8364,-4.3758 0.6349,-1.2472 1.3149,-2.3808 2.0405,-3.4009l0.136 -0.2267c0.9977,-1.3605 1.8137,-2.4033 2.4713,-3.1289 0.6576,-0.7029 1.1789,-1.2017 1.5872,-1.4509 0.4081,-0.2496 0.7029,-0.3628 0.9293,-0.3176l0.0456 0c0.068,0 0.136,0.0228 0.1588,0.0452 0.0224,0.0228 0.0452,0.0228 0.0452,0.0456 0.0228,0.0452 0.0452,0.136 0.0228,0.2268 0,0.1132 -0.0456,0.2265 -0.1136,0.3628 -0.3172,0.612 -0.5893,1.1109 -0.8161,1.4961 -0.2267,0.3628 -0.3628,0.5896 -0.408,0.6576 -0.4536,0.612 -0.7711,1.3604 -1.0204,2.222 -0.2268,0.8617 -0.2268,1.7685 0,2.6981 0.204,0.9293 0.7708,1.7909 1.6777,2.5617 0.9296,0.7484 1.8592,1.1565 2.7661,1.2472 0.9296,0.0905 1.7684,-0.0227 2.5392,-0.34 0.7709,-0.3176 1.3833,-0.7256 1.8593,-1.2016l0.1812 -0.2044c1.0204,-1.3148 1.95,-2.6753 2.7889,-4.0581 0.8388,-1.3832 1.5872,-2.7661 2.2445,-4.1718l0.0455 -0.0907c0.6801,-1.4965 1.0656,-2.9929 1.1561,-4.4666 0.068,-1.4736 -0.136,-2.8793 -0.68,-4.2397 -0.5669,-1.4057 -1.4057,-2.6529 -2.5393,-3.7181 -1.1337,-1.0885 -2.4713,-1.9501 -4.0585,-2.5849 -2.4713,-0.9748 -5.0786,-1.3376 -7.8219,-1.0656 -2.7436,0.272 -5.4189,1.1564 -8.0714,2.63 -2.5849,1.5189 -4.9654,3.3557 -7.0738,5.5546 -2.1089,2.1769 -3.9453,4.4666 -5.5098,6.8699 -1.5641,2.4032 -2.8113,4.7161 -3.7633,6.8925 -0.068,0.1588 -0.136,0.2948 -0.1816,0.4536 -0.3852,0.8841 -0.816,2.1765 -1.3376,3.877 -0.2355,0.7457 -0.4499,1.5339 -0.6429,2.3667zm-104.076 -13.9979c-0.9752,2.1541 -2.0632,4.3305 -3.2424,6.4846 -1.2017,2.1765 -2.4485,4.1717 -3.7409,5.9854 -1.2925,1.8137 -2.5621,3.2649 -3.809,4.3757 -1.2468,1.0884 -2.4032,1.6553 -3.4916,1.7005 -0.1133,0 -0.2041,-0.0228 -0.2493,-0.0452 -0.068,-0.0456 -0.1136,-0.1588 -0.1816,-0.3401 -0.272,-0.8164 -0.2492,-1.9728 0.068,-3.4689 0.2948,-1.4964 0.8392,-3.1289 1.6325,-4.8973 0.7936,-1.7685 1.7684,-3.4917 2.9476,-5.1694 1.1789,-1.6776 2.4941,-3.1061 3.9902,-4.3077 0.8616,-0.6804 1.7232,-1.2016 2.5393,-1.542 0.8392,-0.34 1.6552,-0.5213 2.426,-0.5213 0.0228,0 0.0228,0 0.0228,0 0.4533,0.0228 0.7936,0.2041 1.0201,0.5669 0.2043,0.3628 0.2268,0.748 0.0683,1.1788l0 0zm-28.9136 -41.6948c-1.1109,-1.2469 -2.3805,-2.4033 -3.7862,-3.4689 -1.4056,-1.0881 -2.8341,-1.9725 -4.3077,-2.6753 -2.4261,-1.1564 -5.1241,-2.0857 -8.0715,-2.7661 -2.9476,-0.6576 -6.0537,-1.0881 -9.2958,-1.2696 -3.2421,-0.1813 -6.5298,-0.1133 -9.8627,0.204 -3.3329,0.34 -6.6202,0.9296 -9.8399,1.7684 -2.9245,0.7484 -6.0082,1.8365 -9.2955,3.2649 -3.2877,1.4512 -6.5978,3.3329 -9.9534,5.691 -3.3329,2.3352 -6.5295,5.2598 -9.6131,8.7514 -3.0834,3.4917 -5.8494,7.6407 -8.3435,12.4928 -1.3829,2.7433 -2.1993,5.4186 -2.4033,8.0486 -0.2268,2.6073 0.136,5.1014 1.1109,7.4367 0.9524,2.2672 2.4033,4.2397 4.3305,5.9174 1.95,1.6776 4.3077,2.9701 7.0514,3.8769 0.1812,0.068 0.3852,0.1136 0.5892,0.136 0.204,0.0456 0.4308,0.068 0.6576,0.068 1.0204,-0.0224 1.9273,-0.34 2.7433,-0.9293 0.8164,-0.5896 1.4285,-1.3832 1.7913,-2.4032 2.0857,-5.691 4.1489,-10.6111 6.1894,-14.7373 2.0632,-4.1265 4.0813,-7.6182 6.0765,-10.4295 1.9949,-2.834 3.9449,-5.1465 5.8722,-6.9606 1.9269,-1.8136 3.7861,-3.2421 5.6226,-4.3077 1.814,-1.0881 3.5824,-1.9269 5.3053,-2.5393 2.4941,-0.9296 4.9654,-1.3604 7.4367,-1.2924 2.4488,0.0456 4.7385,0.5668 6.847,1.542 2.1088,0.9748 3.8997,2.3577 5.3509,4.1717 0.9748,1.2469 1.6324,2.7433 1.9272,4.489 0.2945,1.746 0.2493,3.6277 -0.1587,5.6229 -0.5216,2.4485 -1.4737,4.6478 -2.8341,6.5978 -1.3605,1.9497 -2.9929,3.4234 -4.8974,4.4666 -0.0227,0.0224 -0.068,0.0452 -0.0907,0.0452 -0.9297,0.4988 -1.9953,0.9296 -3.1969,1.3148 -1.2017,0.4084 -2.3353,0.6124 -3.4234,0.6804 -1.0656,0.0453 -1.9044,-0.1815 -2.4713,-0.7028 -0.5668,-0.5216 -0.6803,-1.4512 -0.34,-2.7661 0.3173,-1.3376 1.3149,-3.1741 2.9473,-5.5549 0.3853,-0.544 0.7481,-1.0881 1.0884,-1.6325 0.3625,-0.544 0.7253,-1.088 1.0881,-1.6096 0.8616,-1.2017 1.1792,-2.4033 0.9976,-3.6049 -0.1587,-1.1789 -0.8388,-2.2445 -2.0177,-3.1969l0 0c-0.8163,-0.6576 -1.7232,-1.1564 -2.698,-1.5645 -0.9752,-0.408 -1.8365,-0.7028 -2.5849,-0.9068 -0.7708,-0.204 -1.2468,-0.3172 -1.4056,-0.34 -0.1132,-0.0452 -0.5668,-0.0908 -1.3604,-0.136 -0.7709,-0.0456 -1.7909,0.0224 -3.0381,0.2268 -1.2469,0.1812 -2.6073,0.6348 -4.1038,1.3376 -1.4736,0.7028 -2.9701,1.7909 -4.4437,3.2649 -1.4964,1.4737 -2.8793,3.4461 -4.149,5.9402l-0.2268 0.408 0 0.136c-0.7936,2.1541 -1.7912,5.0106 -2.97,8.5475 -1.1792,3.5597 -2.4033,7.5726 -3.6957,12.0844 -1.2697,4.5121 -2.4713,9.2731 -3.6049,14.3292 -1.1337,5.0561 -2.0405,10.1799 -2.7433,15.372 -0.0456,0.2268 -0.0908,0.5893 -0.0908,1.1109 -0.0228,0.5216 0.0452,1.1336 0.2268,1.7912 0.1588,0.6801 0.4988,1.3604 1.02,2.0633 0.7256,0.9068 1.678,1.5869 2.9021,2.0629 1.2244,0.4536 2.6756,0.6804 4.3761,0.6804 1.8365,-0.0228 3.3553,-0.2721 4.6022,-0.7256 1.2244,-0.4761 2.222,-1.0657 2.9704,-1.7913 0.7481,-0.7028 1.3377,-1.4056 1.7229,-2.1309 0.408,-0.7712 0.7028,-1.474 0.8616,-2.1088 0.1588,-0.6348 0.272,-1.1109 0.3176,-1.4281l0 -0.1136c0.3853,-2.1312 0.8388,-4.3305 1.3377,-6.575 0.4988,-2.2445 1.0656,-4.5573 1.6776,-6.8926 0.0228,-0.0452 0.0452,-0.1132 0.0452,-0.1584 0.4989,-1.746 0.9069,-3.2197 1.2472,-4.3985 0.3401,-1.1792 0.6349,-2.1541 0.8841,-2.9249 0.4308,-1.3604 1.1792,-2.4261 2.2445,-3.2649 1.0656,-0.8388 2.29,-1.3149 3.6957,-1.4056 3.5144,-0.1813 7.0286,-0.7257 10.5655,-1.6325 3.5141,-0.9068 6.9606,-2.1537 10.3159,-3.7181 3.2421,-1.5192 6.1898,-3.3557 8.865,-5.4642 2.6981,-2.1085 4.9654,-4.4213 6.8246,-6.915 2.2897,-3.0837 3.8089,-6.303 4.5342,-9.6134 0.7256,-3.3102 0.6576,-6.6431 -0.2264,-9.9984 -0.4536,-1.678 -1.0657,-3.2877 -1.8593,-4.7841 -0.8164,-1.4964 -1.7457,-2.8793 -2.8568,-4.1037l0 0zm-150.528 41.6948c-0.9752,2.1541 -2.0632,4.3305 -3.2424,6.4846 -1.2017,2.1765 -2.4485,4.1717 -3.741,5.9854 -1.2924,1.8137 -2.562,3.2649 -3.8089,4.3757 -1.2468,1.0884 -2.4033,1.6553 -3.4917,1.7005 -0.1132,0 -0.204,-0.0228 -0.2492,-0.0452 -0.068,-0.0456 -0.1136,-0.1588 -0.1816,-0.3401 -0.272,-0.8164 -0.2492,-1.9728 0.068,-3.4689 0.2948,-1.4964 0.8392,-3.1289 1.6325,-4.8973 0.7936,-1.7685 1.7684,-3.4917 2.9476,-5.1694 1.1789,-1.6776 2.4941,-3.1061 3.9902,-4.3077 0.8616,-0.6804 1.7232,-1.2016 2.5393,-1.542 0.8391,-0.34 1.6552,-0.5213 2.426,-0.5213 0.0228,0 0.0228,0 0.0228,0 0.4533,0.0228 0.7936,0.2041 1.0201,0.5669 0.2043,0.3628 0.2268,0.748 0.0683,1.1788l0 0zm35.1423 1.4965c-0.2948,-0.3856 -0.7708,-0.7256 -1.4057,-1.0429 -0.6348,-0.3176 -1.4512,-0.4764 -2.494,-0.4988 -1.2697,0.0224 -2.3125,0.2948 -3.1741,0.8388 -0.8616,0.5216 -1.5417,1.1337 -2.0405,1.8365 -0.476,0.7028 -0.8164,1.3604 -0.9976,1.9272 -0.0452,0.1813 -0.2496,0.6801 -0.6121,1.5189 -0.3403,0.8389 -0.8164,1.882 -1.406,3.1289 -0.5892,1.2469 -1.3148,2.5621 -2.1084,3.9677 -0.8161,1.3832 -1.7229,2.7209 -2.7205,3.9905 -0.9977,1.2697 -2.0633,2.3577 -3.1969,3.2421 -0.204,0.1588 -0.4081,0.2948 -0.6348,0.408 -0.2268,0.0908 -0.4309,0.0681 -0.5669,-0.068 -0.136,-0.136 -0.1815,-0.476 -0.1135,-1.0428 0.1135,-0.9068 0.3856,-2.1085 0.8164,-3.6049 0.4308,-1.4965 0.952,-3.1741 1.6096,-5.0561 0.6576,-1.9497 1.3832,-3.945 2.1541,-5.963 0.7708,-2.0177 1.5416,-3.9902 2.3125,-5.8946 0.748,-1.9045 1.4736,-3.6505 2.1312,-5.2602 0.3628,-0.884 0.7028,-1.7004 0.9976,-2.4485 0.2948,-0.7484 0.5668,-1.406 0.7936,-1.9952l0.3173 -0.7936c0.136,-0.3176 0.204,-0.6348 0.2268,-0.9524 0.0228,-0.3173 -0.0228,-0.6348 -0.1136,-0.9521 -0.204,-0.6348 -0.544,-1.1108 -1.0428,-1.4736 -0.4988,-0.3628 -1.0429,-0.5444 -1.6777,-0.5669l-6.8698 0c-1.8592,0.0225 -3.6049,0.3628 -5.2601,1.0429 -1.6549,0.68 -3.1286,1.6552 -4.4438,2.9473 -2.6301,-1.7005 -5.3053,-2.7661 -7.9806,-3.2421 -2.6753,-0.4533 -5.3734,-0.2948 -8.0487,0.476 -2.2673,0.6804 -4.3533,1.6552 -6.2805,2.9477 -1.9269,1.2924 -3.673,2.766 -5.2374,4.3985 -1.5869,1.6097 -2.9701,3.2649 -4.1717,4.9425 -1.2017,1.6777 -2.2217,3.2194 -3.0609,4.6478 -0.816,1.4057 -1.4509,2.5621 -1.8589,3.4461 -0.4308,0.8844 -0.6576,1.3605 -0.6576,1.406 -0.1588,0.3625 -0.4536,1.1561 -0.8841,2.4033 -0.4083,1.2469 -0.8391,2.7885 -1.2699,4.625 -0.4305,1.814 -0.7481,3.7865 -0.9293,5.8722 -0.1816,2.1088 -0.1136,4.1717 0.2264,6.2125 0.3404,2.0629 1.0432,3.9221 2.1541,5.6226 1.1788,1.7457 2.7208,3.0381 4.6477,3.9225 1.9273,0.8841 4.2173,1.3149 6.8698,1.3149 2.8797,0 5.7362,-0.8389 8.5251,-2.4941 2.7885,-1.6549 5.5321,-4.149 8.2074,-7.4366 0.1132,1.61 0.3628,3.0156 0.7481,4.2173 0.408,1.2244 0.9524,2.2217 1.6324,3.0381 0.6348,0.7708 1.3832,1.3828 2.2673,1.8136 0.8616,0.4536 1.8592,0.7256 2.9476,0.8164l0.1132 0c0.3401,0.0453 0.7029,0.0453 1.0657,0.0453 3.1741,-0.0228 6.3482,-0.8389 9.4771,-2.4261 3.1513,-1.5869 6.1214,-3.8541 8.933,-6.7562 2.8341,-2.9021 5.3734,-6.3258 7.6179,-10.2707 2.2672,-3.945 4.1037,-8.2983 5.5093,-13.014l0.068 -0.1816 0.0228 -0.1812c0.0452,-0.2041 0.0228,-0.6349 -0.0908,-1.3149 -0.0904,-0.6576 -0.4308,-1.3604 -1.0428,-2.086l0 0zm-95.0493 18.7954c0.5668,-0.2721 1.1564,-0.5213 1.7233,-0.7933l0.6576 -0.2948c1.088,-0.4761 2.1764,-0.9524 3.2873,-1.4285 1.1108,-0.476 2.1992,-0.9296 3.2877,-1.3828 1.3376,-0.5444 2.6752,-1.1112 4.0357,-1.678 1.3376,-0.5668 2.698,-1.1789 4.0129,-1.8137 1.2244,-0.5668 2.5393,-1.3377 3.9677,-2.3353 1.4057,-0.9748 2.7889,-2.1312 4.1265,-3.4237 1.3377,-1.3148 2.5165,-2.7205 3.5142,-4.2397 0.9976,-1.4964 1.7004,-3.0833 2.0857,-4.6933 0.4083,-1.6321 0.3628,-3.2646 -0.1361,-4.897 -0.7932,-2.5621 -2.6297,-4.5345 -5.4638,-5.963 -2.8568,-1.4056 -6.7113,-2.2672 -11.5631,-2.5168 -1.8817,-0.1132 -3.8545,-0.1132 -5.9174,0 -2.0408,0.1136 -4.1717,0.3176 -6.371,0.6351 -4.0585,0.6573 -7.3006,1.5869 -9.6586,2.8338 -2.3805,1.2472 -4.1265,2.5621 -5.2602,3.9677 -1.1336,1.406 -1.8589,2.6756 -2.1992,3.7865 -0.3173,1.1336 -0.4761,1.8817 -0.4533,2.2673 -0.0455,0.3628 -0.068,0.952 -0.068,1.7684 0.0225,0.7936 0.1588,1.6552 0.4308,2.5845 0.272,0.9072 0.7936,1.678 1.5417,2.3353 0.408,0.3628 1.0204,0.6576 1.7912,0.8392 0.7708,0.1584 1.7457,0.068 2.9021,-0.2948 2.8341,-0.9977 5.4186,-1.7461 7.7539,-2.2449 2.3352,-0.5212 4.5573,-0.7932 6.711,-0.8612 0.272,0 0.4308,0.136 0.4763,0.3624 0.068,0.2496 -0.0227,0.4308 -0.2723,0.5668 0,0 -0.0225,0 -0.0225,0l-0.7936 0.3628c-1.9044,0.8389 -3.7865,1.6781 -5.7134,2.4713 -1.9044,0.7936 -3.8092,1.5872 -5.6909,2.3581l-2.0405 0.8388c-1.5872,0.6348 -3.2876,1.5417 -5.1241,2.6981 -1.8365,1.1564 -3.6049,2.5168 -5.3054,4.1037 -1.6776,1.5644 -3.1061,3.3101 -4.2397,5.1921 -1.1336,1.8817 -1.7912,3.8542 -1.9497,5.9402 -0.1588,2.8566 0.8616,5.2146 3.0606,7.0966 2.1992,1.8817 5.4641,3.1741 9.8174,3.9222 1.1561,0.1815 2.3353,0.34 3.5369,0.4308 1.2241,0.0908 2.4713,0.136 3.7637,0.136 1.4509,0 2.9925,-0.068 4.557,-0.1812 1.5872,-0.136 3.2196,-0.3176 4.9201,-0.5669 4.0809,-0.6348 7.3006,-1.5644 9.6811,-2.8116 2.3805,-1.2469 4.1265,-2.5845 5.2601,-3.9902 1.1337,-1.4056 1.8589,-2.6528 2.1765,-3.7864 0.34,-1.1109 0.476,-1.8589 0.476,-2.2445 0.0453,-0.3628 0.0681,-0.9524 0.0453,-1.7685 0,-0.816 -0.136,-1.6776 -0.4081,-2.5845 -0.2948,-0.9072 -0.7936,-1.678 -1.5416,-2.3353 -0.4308,-0.3855 -1.0204,-0.6576 -1.7912,-0.8391 -0.7709,-0.1813 -1.7457,-0.068 -2.9246,0.2948 -2.8796,1.0204 -5.4869,1.7684 -7.7994,2.2672 -2.3353,0.5216 -4.5573,0.7936 -6.6886,0.8389 -0.272,0 -0.4308,-0.136 -0.476,-0.3628 -0.0452,-0.2493 0.0228,-0.4305 0.272,-0.5668l0 0zm-49.6587 0c0.5668,-0.2721 1.1564,-0.5213 1.7232,-0.7933l0.6576 -0.2948c1.0881,-0.4761 2.1765,-0.9524 3.2873,-1.4285 1.1109,-0.476 2.1993,-0.9296 3.2877,-1.3828 1.3377,-0.5444 2.6753,-1.1112 4.0357,-1.678 1.3377,-0.5668 2.6981,-1.1789 4.013,-1.8137 1.2244,-0.5668 2.5393,-1.3377 3.9677,-2.3353 1.4056,-0.9748 2.7888,-2.1312 4.1265,-3.4237 1.3376,-1.3148 2.5165,-2.7205 3.5141,-4.2397 0.9976,-1.4964 1.7005,-3.0833 2.0857,-4.6933 0.4084,-1.6321 0.3628,-3.2646 -0.136,-4.897 -0.7933,-2.5621 -2.6297,-4.5345 -5.4638,-5.963 -2.8569,-1.4056 -6.7114,-2.2672 -11.5631,-2.5168 -1.8817,-0.1132 -3.8545,-0.1132 -5.9174,0 -2.0408,0.1136 -4.1718,0.3176 -6.371,0.6351 -4.0585,0.6573 -7.3006,1.5869 -9.6587,2.8338 -2.3805,1.2472 -4.1265,2.5621 -5.2601,3.9677 -1.1336,1.406 -1.8589,2.6756 -2.1993,3.7865 -0.3172,1.1336 -0.476,1.8817 -0.4532,2.2673 -0.0456,0.3628 -0.068,0.952 -0.068,1.7684 0.008,0.2804 0.0301,0.5692 0.0673,0.8666 -0.2405,-0.1758 -0.5219,-0.3427 -0.8442,-0.5038 -0.612,-0.3176 -1.4509,-0.4764 -2.494,-0.4988 -1.2469,0.0224 -2.3125,0.2948 -3.1742,0.8388 -0.8616,0.5216 -1.5416,1.1337 -2.0176,1.8365 -0.4989,0.7028 -0.8389,1.3604 -1.0204,1.9272 -0.0453,0.1813 -0.2948,0.7709 -0.6801,1.7457 -0.4084,0.9749 -0.9524,2.154 -1.6324,3.5597 -0.7029,1.4056 -1.5193,2.8793 -2.4489,4.3985 -0.9293,1.4965 -1.9724,2.9021 -3.1061,4.1718 -1.156,1.2696 -2.3805,2.2444 -3.6729,2.9473 -1.1788,0.612 -2.0632,0.8844 -2.6073,0.8616 -0.544,-0.0228 -0.8844,-0.204 -1.0204,-0.5216 -0.136,-0.3173 -0.1812,-0.6121 -0.136,-0.8616 0.4084,-3.0381 1.0884,-5.9174 2.0408,-8.638 0.9521,-2.7208 2.1765,-5.3509 3.6729,-7.9354 1.4961,-2.5848 3.2874,-5.1693 5.3278,-7.7994 0.7484,-0.9748 1.1565,-1.9045 1.2697,-2.7433 0.136,-0.8616 0.0908,-1.5644 -0.0905,-2.154 -0.2268,-0.8389 -0.6123,-1.5645 -1.1564,-2.2221 -0.5216,-0.6348 -1.0884,-1.2016 -1.7232,-1.6777 -0.6348,-0.4532 -1.2016,-0.816 -1.7229,-1.1108 -0.5216,-0.272 -0.9068,-0.4536 -1.1336,-0.5444 -0.2268,-0.136 -0.6804,-0.3172 -1.3605,-0.544 -0.68,-0.2268 -1.5192,-0.3628 -2.5392,-0.408 -1.0429,-0.0453 -2.1993,0.1132 -3.4917,0.476 -2.3125,0.7028 -4.5118,2.1085 -6.5522,4.2397 -2.0405,2.1313 -3.9453,4.9654 -5.691,8.5023 -2.3353,4.7613 -4.0809,9.3411 -5.2146,13.6944 -1.1336,4.3529 -1.6324,8.3206 -1.4964,11.8803 0.136,3.5597 0.9296,6.507 2.3805,8.8875 0.5216,0.8164 1.2696,1.5192 2.222,2.1541 0.9521,0.612 2.0405,1.1336 3.2194,1.5416 1.2016,0.4308 2.4032,0.7481 3.6052,0.9524 1.2016,0.204 2.3353,0.3173 3.3553,0.3173 3.1742,-0.0228 6.3483,-0.8389 9.4771,-2.4261 3.1517,-1.5869 6.1218,-3.8541 8.9559,-6.7562 0.6847,-0.7069 1.353,-1.4445 2.0053,-2.213 -0.0523,0.3343 -0.0918,0.6713 -0.1176,1.0113 -0.1588,2.8566 0.8616,5.2146 3.0605,7.0966 2.1993,1.8817 5.4642,3.1741 9.8175,3.9222 1.156,0.1815 2.3352,0.34 3.5369,0.4308 1.2241,0.0908 2.4713,0.136 3.7637,0.136 1.4508,0 2.9925,-0.068 4.5569,-0.1812 1.5873,-0.136 3.2197,-0.3176 4.9202,-0.5669 4.0809,-0.6348 7.3006,-1.5644 9.6811,-2.8116 2.3805,-1.2469 4.1265,-2.5845 5.2601,-3.9902 1.1336,-1.4056 1.8589,-2.6528 2.1765,-3.7864 0.34,-1.1109 0.476,-1.8589 0.476,-2.2445 0.0452,-0.3628 0.068,-0.9524 0.0452,-1.7685 0,-0.816 -0.136,-1.6776 -0.408,-2.5845 -0.2948,-0.9072 -0.7936,-1.678 -1.5417,-2.3353 -0.4308,-0.3855 -1.0204,-0.6576 -1.7912,-0.8391 -0.7708,-0.1813 -1.7457,-0.068 -2.9245,0.2948 -2.8797,1.0204 -5.4869,1.7684 -7.7994,2.2672 -2.3353,0.5216 -4.5573,0.7936 -6.6886,0.8389 -0.272,0 -0.4308,-0.136 -0.476,-0.3628 -0.0453,-0.2493 0.0227,-0.4305 0.272,-0.5668l0 0zm-14.618 -15.4636c0.0643,0.0617 0.1303,0.1227 0.1983,0.1823 0.4081,0.3628 1.0204,0.6576 1.7913,0.8392 0.7708,0.1584 1.7456,0.068 2.9021,-0.2948 2.834,-0.9977 5.4185,-1.7461 7.7538,-2.2449 2.3353,-0.5212 4.5573,-0.7932 6.711,-0.8612 0.272,0 0.4308,0.136 0.4764,0.3624 0.068,0.2496 -0.0228,0.4308 -0.2724,0.5668 0,0 -0.0224,0 -0.0224,0l-0.7936 0.3628c-1.9045,0.8389 -3.7865,1.6781 -5.7134,2.4713 -1.9045,0.7936 -3.8093,1.5872 -5.6909,2.3581l-2.0405 0.8388c-1.5872,0.6348 -3.2877,1.5417 -5.1241,2.6981 -1.4161,0.8917 -2.7916,1.9048 -4.1269,3.0491 1.5209,-3.086 2.804,-6.3907 3.8491,-9.8961l0.0681 -0.1816 0.0224 -0.1812c0.0047,-0.0208 0.0084,-0.0436 0.0117,-0.0691zm-19.6007 -22.5356c0.4536,0.068 0.9524,0.0908 1.4284,0.068 0.4761,0 0.9521,-0.0452 1.4509,-0.136 1.61,-0.2948 3.1061,-0.8841 4.5121,-1.8137 1.4056,-0.9068 2.5393,-2.0632 3.4233,-3.4689l4.4666 -7.2098c0.7483,-1.2244 1.2016,-2.4713 1.3152,-3.7409 0.136,-1.2697 -0.0456,-2.4713 -0.5444,-3.5825 -0.476,-1.0656 -1.2016,-1.9269 -2.1313,-2.6073 -0.9296,-0.68 -2.0177,-1.1336 -3.2649,-1.3604l-2.6752 -0.4533c-1.8817,-0.2948 -3.673,-0.1588 -5.4186,0.4081 -1.7233,0.5668 -3.1969,1.4736 -4.4438,2.698 -1.2472,1.2244 -2.086,2.6753 -2.494,4.353l-1.7913 7.6634c-0.2492,1.0884 -0.272,2.1765 -0.068,3.2421 0.204,1.0656 0.6121,2.0405 1.2244,2.9477 0.5893,0.8388 1.3149,1.5188 2.1765,2.0404 0.8389,0.4988 1.7913,0.8389 2.8341,0.9521l0 0zm-21.5903 -23.9875c-1.1108,-1.2469 -2.3805,-2.4033 -3.7861,-3.4689 -1.4057,-1.0881 -2.8341,-1.9725 -4.3078,-2.6753 -2.426,-1.1564 -5.1241,-2.0857 -8.0714,-2.7661 -2.9476,-0.6576 -6.0537,-1.0881 -9.2958,-1.2696 -3.2422,-0.1813 -6.5298,-0.1133 -9.8627,0.204 -3.3329,0.34 -6.6202,0.9296 -9.8399,1.7684 -2.9245,0.7484 -6.0082,1.8365 -9.2955,3.2649 -3.2877,1.4512 -6.5978,3.3329 -9.9535,5.691 -3.3329,2.3352 -6.5294,5.2598 -9.6131,8.7514 -3.0833,3.4917 -5.8494,7.6407 -8.3434,12.4928 -1.3829,2.7433 -2.1993,5.4186 -2.4033,8.0486 -0.2268,2.6073 0.136,5.1014 1.1108,7.4367 0.9524,2.2672 2.4033,4.2397 4.3306,5.9174 1.95,1.6776 4.3077,2.9701 7.0513,3.8769 0.1813,0.068 0.3853,0.1136 0.5893,0.136 0.204,0.0456 0.4308,0.068 0.6576,0.068 1.0204,-0.0224 1.9272,-0.34 2.7433,-0.9293 0.8164,-0.5896 1.4284,-1.3832 1.7912,-2.4032 2.0857,-5.691 4.149,-10.6111 6.1894,-14.7373 2.0633,-4.1265 4.0813,-7.6182 6.0766,-10.4295 1.9949,-2.834 3.9449,-5.1465 5.8721,-6.9606 1.9269,-1.8136 3.7862,-3.2421 5.6226,-4.3077 1.8141,-1.0881 3.5825,-1.9269 5.3054,-2.5393 2.4941,-0.9296 4.9653,-1.3604 7.4366,-1.2924 2.4489,0.0456 4.7386,0.5668 6.847,1.542 2.1089,0.9748 3.8998,2.3577 5.351,4.1717 0.9748,1.2469 1.6324,2.7433 1.9272,4.489 0.2945,1.746 0.2492,3.6277 -0.1588,5.6229 -0.5216,2.4485 -1.4736,4.6478 -2.8341,6.5978 -1.3604,1.9497 -2.9928,3.4234 -4.8973,4.4666 -0.0228,0.0224 -0.068,0.0452 -0.0908,0.0452 -0.9296,0.4988 -1.9952,0.9296 -3.1969,1.3148 -1.2016,0.4084 -2.3352,0.6124 -3.4233,0.6804 -1.0656,0.0453 -1.9045,-0.1815 -2.4713,-0.7028 -0.5668,-0.5216 -0.6804,-1.4512 -0.34,-2.7661 0.3172,-1.3376 1.3149,-3.1741 2.9473,-5.5549 0.3852,-0.544 0.748,-1.0881 1.0884,-1.6325 0.3625,-0.544 0.7253,-1.088 1.0881,-1.6096 0.8616,-1.2017 1.1792,-2.4033 0.9976,-3.6049 -0.1588,-1.1789 -0.8388,-2.2445 -2.0177,-3.1969l0 0c-0.8164,-0.6576 -1.7232,-1.1564 -2.6981,-1.5645 -0.9751,-0.408 -1.8364,-0.7028 -2.5848,-0.9068 -0.7708,-0.204 -1.2469,-0.3172 -1.4057,-0.34 -0.1132,-0.0452 -0.5668,-0.0908 -1.3604,-0.136 -0.7708,-0.0456 -1.7909,0.0224 -3.0381,0.2268 -1.2468,0.1812 -2.6073,0.6348 -4.1037,1.3376 -1.4737,0.7028 -2.9701,1.7909 -4.4437,3.2649 -1.4965,1.4737 -2.8794,3.4461 -4.149,5.9402l-0.2268 0.408 0 0.136c-0.7936,2.1541 -1.7912,5.0106 -2.9701,8.5475 -1.1792,3.5597 -2.4033,7.5726 -3.6957,12.0844 -1.2696,4.5121 -2.4713,9.2731 -3.6049,14.3292 -1.1336,5.0561 -2.0405,10.1799 -2.7433,15.372 -0.0455,0.2268 -0.0908,0.5893 -0.0908,1.1109 -0.0227,0.5216 0.0453,1.1336 0.2268,1.7912 0.1588,0.6801 0.4988,1.3604 1.0201,2.0633 0.7256,0.9068 1.678,1.5869 2.9021,2.0629 1.2244,0.4536 2.6756,0.6804 4.3761,0.6804 1.8364,-0.0228 3.3553,-0.2721 4.6022,-0.7256 1.2244,-0.4761 2.222,-1.0657 2.9704,-1.7913 0.748,-0.7028 1.3376,-1.4056 1.7229,-2.1309 0.408,-0.7712 0.7028,-1.474 0.8616,-2.1088 0.1588,-0.6348 0.272,-1.1109 0.3176,-1.4281l0 -0.1136c0.3852,-2.1312 0.8388,-4.3305 1.3376,-6.575 0.4988,-2.2445 1.0656,-4.5573 1.6777,-6.8926 0.0228,-0.0452 0.0452,-0.1132 0.0452,-0.1584 0.4988,-1.746 0.9068,-3.2197 1.2472,-4.3985 0.34,-1.1792 0.6348,-2.1541 0.8841,-2.9249 0.4308,-1.3604 1.1792,-2.4261 2.2445,-3.2649 1.0656,-0.8388 2.29,-1.3149 3.6956,-1.4056 3.5145,-0.1813 7.0286,-0.7257 10.5655,-1.6325 3.5142,-0.9068 6.9606,-2.1537 10.316,-3.7181 3.2421,-1.5192 6.1897,-3.3557 8.865,-5.4642 2.6981,-2.1085 4.9653,-4.4213 6.8246,-6.915 2.2897,-3.0837 3.8089,-6.303 4.5342,-9.6134 0.7256,-3.3102 0.6576,-6.6431 -0.2265,-9.9984 -0.4536,-1.678 -1.0656,-3.2877 -1.8592,-4.7841 -0.8164,-1.4964 -1.7457,-2.8793 -2.8569,-4.1037l0 0z"/>
  </g>
 </g>
</svg>
